<?xml version="1.0" encoding="UTF-8"?>
<!DOCTYPE svg PUBLIC "-//W3C//DTD SVG 1.1//EN" "http://www.w3.org/Graphics/SVG/1.1/DTD/svg11.dtd">
<svg xmlns="http://www.w3.org/2000/svg" version="1.1" width="550px" height="712px" style="shape-rendering:geometricPrecision; text-rendering:geometricPrecision; image-rendering:optimizeQuality; fill-rule:evenodd; clip-rule:evenodd" xmlns:xlink="http://www.w3.org/1999/xlink">
<g><path style="opacity:0.593" fill="#000000" d="M 234.5,16.5 C 236.199,16.3398 237.866,16.5065 239.5,17C 240.877,19.3332 241.877,21.8332 242.5,24.5C 251.63,26.7856 253.963,32.119 249.5,40.5C 244.224,41.1092 241.224,44.1092 240.5,49.5C 243.347,51.8667 245.18,54.8667 246,58.5C 247,59.1667 248,59.8333 249,60.5C 253.395,57.7989 257.229,54.4656 260.5,50.5C 261.348,48.5914 261.682,46.5914 261.5,44.5C 263.575,44.3016 265.575,44.1349 267.5,44C 269.788,46.072 271.454,48.572 272.5,51.5C 276.435,48.9667 280.769,47.6333 285.5,47.5C 289.967,48.9766 294.634,49.6432 299.5,49.5C 299.34,51.1992 299.506,52.8659 300,54.5C 302.566,50.5914 306.066,49.5914 310.5,51.5C 311.068,53.4346 312.235,54.7679 314,55.5C 316.978,54.0892 320.145,53.0892 323.5,52.5C 325.573,50.7968 327.906,49.6301 330.5,49C 330.647,45.9545 330.48,42.7879 330,39.5C 333.815,34.4431 338.649,33.2764 344.5,36C 345.098,38.048 346.431,39.2147 348.5,39.5C 353.135,35.5103 357.635,35.8437 362,40.5C 363.011,39.6634 364.178,39.33 365.5,39.5C 365.5,37.8333 365.5,36.1667 365.5,34.5C 370.627,32.4311 374.627,33.7645 377.5,38.5C 382.544,40.3545 386.878,39.3545 390.5,35.5C 391.938,35.7189 393.271,36.2189 394.5,37C 396.233,43.1611 397.9,49.1611 399.5,55C 398.809,58.9073 397.809,62.7407 396.5,66.5C 396.527,69.9094 398.027,72.2428 401,73.5C 407.018,70.0645 413.185,69.8978 419.5,73C 423.618,75.6097 427.618,78.443 431.5,81.5C 432.456,82.8651 433.122,84.3651 433.5,86C 428.397,94.0391 424.23,102.539 421,111.5C 419.54,114.21 417.54,114.876 415,113.5C 414.904,116.451 414.071,119.118 412.5,121.5C 406.86,127.331 400.36,131.997 393,135.5C 391.612,134.446 390.112,134.28 388.5,135C 386.175,139.029 383.675,142.862 381,146.5C 380.115,155.044 375.615,160.544 367.5,163C 369.359,164.558 370.859,166.391 372,168.5C 373.73,172.92 375.563,177.253 377.5,181.5C 376.051,183.913 375.384,186.58 375.5,189.5C 377.503,194.389 378.503,199.555 378.5,205C 378.67,208.864 378.003,212.531 376.5,216C 378.915,217.191 380.248,219.191 380.5,222C 379.282,225.88 377.615,229.547 375.5,233C 377.734,236.728 379.734,240.561 381.5,244.5C 381.38,248.38 379.547,251.046 376,252.5C 375.496,256.02 373.663,258.52 370.5,260C 364.773,259.908 360.773,262.408 358.5,267.5C 359.294,271.236 361.628,273.07 365.5,273C 370.031,277.06 373.031,282.06 374.5,288C 373.439,294.624 372.272,301.458 371,308.5C 369.558,312.275 367.058,315.108 363.5,317C 363.928,321.263 363.928,325.43 363.5,329.5C 361.469,334.355 357.802,337.021 352.5,337.5C 347.518,337.442 342.518,337.109 337.5,336.5C 330.521,340.113 323.354,340.446 316,337.5C 314.438,337.259 312.938,337.759 311.5,339C 316.689,344.022 321.689,349.188 326.5,354.5C 329.742,354.949 332.075,356.616 333.5,359.5C 334.35,364.679 334.35,369.679 333.5,374.5C 339.674,378.391 342.341,384.057 341.5,391.5C 344.167,392.5 346.833,393.5 349.5,394.5C 350.635,396.707 351.301,399.04 351.5,401.5C 359.653,399.651 365.486,402.651 369,410.5C 369.232,417.473 367.232,423.806 363,429.5C 362.759,432.289 362.092,434.956 361,437.5C 354.662,444.171 347.996,450.504 341,456.5C 340.691,457.766 340.191,458.933 339.5,460C 340.727,462.736 341.727,465.569 342.5,468.5C 340.038,473.257 337.705,478.09 335.5,483C 337.797,484.58 338.131,486.58 336.5,489C 341.457,495.71 346.79,502.21 352.5,508.5C 353.631,513.371 355.797,517.704 359,521.5C 362.749,518.125 367.082,515.792 372,514.5C 374.499,514.816 375.999,516.149 376.5,518.5C 373.989,526.849 371.489,535.182 369,543.5C 365.774,547.369 362.108,548.035 358,545.5C 355.724,549.59 352.391,550.923 348,549.5C 346.527,549.903 345.194,550.57 344,551.5C 342.755,557.663 341.089,563.663 339,569.5C 335.403,573.666 331.569,577.666 327.5,581.5C 326.253,590.33 323.253,598.497 318.5,606C 325.091,614.383 327.757,623.716 326.5,634C 327.344,636.095 328.344,638.095 329.5,640C 328.941,640.725 328.608,641.558 328.5,642.5C 329.602,645.973 330.602,649.473 331.5,653C 331.215,654.89 330.215,656.223 328.5,657C 322.659,655.719 317.659,657.386 313.5,662C 311.5,662.667 309.5,663.333 307.5,664C 302.325,668.192 297.325,672.525 292.5,677C 290.376,678.582 288.21,678.749 286,677.5C 283.1,679.636 279.934,681.303 276.5,682.5C 267.322,678.914 258.322,674.747 249.5,670C 245.254,669.633 241.087,670.133 237,671.5C 234.171,671.023 231.505,670.023 229,668.5C 222.281,670.627 215.947,669.627 210,665.5C 207.595,665.964 205.095,666.131 202.5,666C 200.875,666.853 200.542,667.853 201.5,669C 200.672,669.915 199.672,670.581 198.5,671C 191.034,672.02 183.7,673.687 176.5,676C 174.787,677.378 173.453,679.045 172.5,681C 171.128,681.402 169.795,681.902 168.5,682.5C 166.166,680.559 163.666,678.893 161,677.5C 160.333,676.167 160.333,674.833 161,673.5C 165.773,666.837 168.773,659.503 170,651.5C 174.387,648.712 175.554,644.879 173.5,640C 175.635,634.516 177.802,629.016 180,623.5C 180.895,617.753 181.728,612.253 182.5,607C 180.408,605.147 179.408,602.814 179.5,600C 179.911,596.613 180.577,593.28 181.5,590C 179.897,588.093 180.23,586.593 182.5,585.5C 181.007,583.636 180.34,581.47 180.5,579C 181.122,574.487 181.456,570.32 181.5,566.5C 180.835,561.318 177.835,558.652 172.5,558.5C 171.864,553.371 173.364,548.704 177,544.5C 179.955,535.039 182.122,525.539 183.5,516C 182.402,511.075 180.902,506.241 179,501.5C 177.361,498.197 175.028,495.53 172,493.5C 171.517,492.552 171.351,491.552 171.5,490.5C 168.049,490.526 165.382,492.026 163.5,495C 155.272,496.638 147.438,498.471 140,500.5C 137.857,495.563 138.69,491.063 142.5,487C 141.74,485.559 141.074,484.059 140.5,482.5C 141.485,480.902 141.651,479.235 141,477.5C 137.606,473.33 136.273,468.664 137,463.5C 134.631,464.551 132.131,465.218 129.5,465.5C 125.185,463.401 120.685,463.067 116,464.5C 113.525,464.016 111.692,462.683 110.5,460.5C 110.93,455.553 111.097,450.553 111,445.5C 114.213,439.778 116.713,434.111 118.5,428.5C 117.988,426.116 117.321,423.783 116.5,421.5C 118.33,417.72 118.664,413.886 117.5,410C 122.075,403.583 125.075,396.416 126.5,388.5C 126.293,383.716 123.959,380.716 119.5,379.5C 116.54,374.079 118.207,370.745 124.5,369.5C 125.833,370.167 127.167,370.833 128.5,371.5C 131.267,369.318 134.267,367.651 137.5,366.5C 137.949,362.952 138.949,359.619 140.5,356.5C 142.929,356.116 145.263,355.449 147.5,354.5C 147.351,353.448 147.517,352.448 148,351.5C 151.519,349.226 152.686,346.226 151.5,342.5C 152.69,336.097 154.19,329.763 156,323.5C 161.517,309.957 166.85,296.29 172,282.5C 171.08,276.269 170.414,269.935 170,263.5C 173.82,251.82 177.32,240.154 180.5,228.5C 180.291,227.914 179.957,227.414 179.5,227C 184.9,207.237 189.567,187.237 193.5,167C 193.455,163.198 193.455,159.365 193.5,155.5C 192.926,152.823 192.259,150.157 191.5,147.5C 189.817,146.147 188.484,144.48 187.5,142.5C 186.79,132.795 184.624,123.462 181,114.5C 181.984,104.122 180.15,93.9549 175.5,84C 177.172,81.337 176.506,79.5036 173.5,78.5C 170.392,71.1317 170.058,63.4651 172.5,55.5C 172.291,54.914 171.957,54.414 171.5,54C 172.924,51.8995 174.258,49.7328 175.5,47.5C 177.776,46.7868 180.109,46.2868 182.5,46C 181.72,44.927 181.887,43.7604 183,42.5C 184.871,40.697 187.038,39.3637 189.5,38.5C 191.987,31.8574 196.82,28.5241 204,28.5C 207.324,24.837 211.324,23.837 216,25.5C 223.366,24.8827 229.532,21.8827 234.5,16.5 Z M 369.5,521.5 C 368.686,525.442 367.186,529.109 365,532.5C 364.899,535.7 364.232,538.7 363,541.5C 357.73,537.984 353.73,538.984 351,544.5C 345.252,543.358 340.752,545.358 337.5,550.5C 337.586,556.035 336.253,561.368 333.5,566.5C 331.31,568.856 329.31,571.356 327.5,574C 326.1,575.438 324.433,576.271 322.5,576.5C 320.943,582.026 319.777,587.36 319,592.5C 315.598,596.515 313.431,601.182 312.5,606.5C 315.506,610.509 318.006,614.842 320,619.5C 320.701,626.804 321.868,633.97 323.5,641C 322.635,644.388 323.302,647.555 325.5,650.5C 318.489,652.058 311.822,654.391 305.5,657.5C 302.505,662.002 298.505,665.168 293.5,667C 291.391,670.727 288.058,672.394 283.5,672C 281.468,674.013 279.134,675.513 276.5,676.5C 267.394,672.148 257.894,667.814 248,663.5C 245.07,664.483 242.07,665.149 239,665.5C 236.031,664.562 233.031,663.562 230,662.5C 227.432,662.934 224.932,663.6 222.5,664.5C 220.615,663.391 218.615,662.557 216.5,662C 218.558,660.192 218.892,658.025 217.5,655.5C 213.247,654.854 210.414,656.52 209,660.5C 207.812,659.437 207.312,658.103 207.5,656.5C 205.43,656.449 203.597,657.115 202,658.5C 198.682,660.985 195.515,663.651 192.5,666.5C 191.833,666.167 191.167,665.833 190.5,665.5C 186.981,666.932 183.314,667.766 179.5,668C 176.123,670.166 172.789,672.332 169.5,674.5C 169.167,674 168.833,673.5 168.5,673C 171.69,667.961 174.024,662.628 175.5,657C 175.043,656.586 174.709,656.086 174.5,655.5C 176.633,653.909 178.299,651.909 179.5,649.5C 179.828,645.561 179.995,641.561 180,637.5C 185.521,627.564 187.854,616.898 187,605.5C 186.56,603.924 185.727,602.59 184.5,601.5C 185.761,597.939 186.594,594.272 187,590.5C 187.69,594.19 189.857,595.357 193.5,594C 194.574,593.261 195.241,592.261 195.5,591C 195.189,584.362 191.856,580.195 185.5,578.5C 186.54,575.123 187.206,571.957 187.5,569C 186.345,565.713 185.345,562.379 184.5,559C 182.767,556.798 180.767,554.965 178.5,553.5C 185.539,540.288 188.873,526.288 188.5,511.5C 187.146,507.765 185.812,504.098 184.5,500.5C 190.176,500.666 195.843,500.499 201.5,500C 203.602,498.267 203.935,496.267 202.5,494C 198.555,493.538 195.555,491.705 193.5,488.5C 195.694,484.056 195.028,479.889 191.5,476C 187.971,473.621 185.471,474.454 184,478.5C 183.667,480.833 183.333,483.167 183,485.5C 177.806,479.213 172.639,479.047 167.5,485C 164.306,486.744 161.306,488.744 158.5,491C 154.455,490.909 150.455,491.742 146.5,493.5C 146.167,493.333 145.833,493.167 145.5,493C 146.627,491.247 147.627,489.413 148.5,487.5C 147.929,481.08 146.262,474.746 143.5,468.5C 147.955,467.622 151.289,469.122 153.5,473C 158.493,474.509 160.493,472.675 159.5,467.5C 165.52,466.979 168.686,463.645 169,457.5C 172.357,456.139 174.191,453.639 174.5,450C 172.799,445.258 170.799,440.591 168.5,436C 169.752,431.548 171.752,427.548 174.5,424C 180.098,423.636 185.098,421.802 189.5,418.5C 192.041,414.715 193.708,410.548 194.5,406C 192.977,402.905 190.644,402.072 187.5,403.5C 186.081,405.336 184.914,407.336 184,409.5C 179.378,412.695 174.212,414.529 168.5,415C 167.667,415.833 166.833,416.667 166,417.5C 161.289,424.984 156.955,432.651 153,440.5C 152.454,443.855 152.621,447.188 153.5,450.5C 153.563,452.481 152.896,454.148 151.5,455.5C 148.014,456.172 144.847,457.506 142,459.5C 138.243,458.289 134.576,458.623 131,460.5C 127.1,457.466 123.1,456.799 119,458.5C 116.828,457.392 116.328,455.892 117.5,454C 117.241,452.739 116.574,451.739 115.5,451C 117.854,445.124 120.354,439.29 123,433.5C 123.581,429.81 123.415,426.144 122.5,422.5C 123.372,414.314 125.872,406.314 130,398.5C 132.472,391.221 131.972,384.221 128.5,377.5C 132.05,376.14 135.217,374.14 138,371.5C 139.36,374.551 141.527,375.218 144.5,373.5C 144.833,372.5 145.167,371.5 145.5,370.5C 144.624,368.177 144.124,365.843 144,363.5C 146.061,360.917 148.728,359.251 152,358.5C 153.233,355.265 154.899,352.265 157,349.5C 157.278,343.051 158.278,336.718 160,330.5C 166.795,314.116 172.795,297.449 178,280.5C 180.699,280.336 183.532,280.17 186.5,280C 187.683,277.845 187.35,275.845 185.5,274C 181.356,272.764 177.69,270.764 174.5,268C 176.85,261.953 179.017,255.786 181,249.5C 183.669,236.152 186.669,222.818 190,209.5C 191.458,210.747 192.958,210.747 194.5,209.5C 197.655,202.22 199.155,194.886 199,187.5C 198.5,185.667 197.333,184.5 195.5,184C 197.879,176.44 198.879,168.606 198.5,160.5C 199.566,152.412 197.399,145.412 192,139.5C 192.165,131.782 190.498,124.115 187,116.5C 186.805,111.582 186.305,106.749 185.5,102C 186.167,101 186.833,100 187.5,99C 186.299,98.0975 185.465,96.9308 185,95.5C 184.219,91.5398 183.052,87.7065 181.5,84C 181.759,82.7387 182.426,81.7387 183.5,81C 187.047,80.8885 189.714,79.3885 191.5,76.5C 190.73,74.7282 189.397,73.7282 187.5,73.5C 184.308,74.0266 180.975,74.0266 177.5,73.5C 177,68.0796 176.666,62.9129 176.5,58C 178.038,56.0679 179.205,53.9012 180,51.5C 182.044,52.772 183.878,52.4386 185.5,50.5C 187.226,48.7721 188.559,46.7721 189.5,44.5C 190.991,43.7564 192.491,43.0897 194,42.5C 195.123,39.7513 196.623,37.2513 198.5,35C 203.116,35.2705 207.116,33.9372 210.5,31C 219.807,31.38 228.307,28.88 236,23.5C 236.438,26.376 237.438,29.0427 239,31.5C 241.027,31.0137 243.193,31.0137 245.5,31.5C 245.579,32.9305 245.246,34.2638 244.5,35.5C 239.682,39.4238 236.016,44.2571 233.5,50C 233.991,53.3223 235.824,55.489 239,56.5C 239.226,62.2633 242.226,65.5966 248,66.5C 249.92,66.062 251.754,65.3953 253.5,64.5C 257.374,61.7476 261.041,58.7476 264.5,55.5C 265.707,57.2702 267.374,58.2702 269.5,58.5C 272.799,57.5769 275.799,56.0769 278.5,54C 281.095,53.7744 283.595,53.2744 286,52.5C 287.491,54.0037 289.324,54.8371 291.5,55C 292.829,60.9983 296.162,62.665 301.5,60C 303.167,58.8333 304.833,57.6667 306.5,56.5C 307.386,57.325 307.719,58.325 307.5,59.5C 308.5,59.5 309.5,59.5 310.5,59.5C 310.5,60.8333 310.5,62.1667 310.5,63.5C 315.174,60.6565 320.34,58.6565 326,57.5C 329.638,55.5171 332.971,53.1837 336,50.5C 336.07,47.2251 336.237,44.0584 336.5,41C 337.333,40.8333 338.167,40.6667 339,40.5C 343.485,44.4628 348.652,45.4628 354.5,43.5C 356.318,44.6361 358.318,45.3028 360.5,45.5C 363.846,44.8295 367.179,44.1628 370.5,43.5C 370.281,42.325 370.614,41.325 371.5,40.5C 373.546,43.1883 376.213,44.855 379.5,45.5C 383.463,44.8846 387.296,43.8846 391,42.5C 391.651,44.235 391.485,45.9017 390.5,47.5C 390.929,50.1473 392.262,52.1473 394.5,53.5C 393.012,57.7869 391.678,62.1203 390.5,66.5C 391.973,78.812 398.139,82.1453 409,76.5C 416.527,77.1791 422.693,80.3458 427.5,86C 422.295,91.9093 418.795,98.7427 417,106.5C 413.995,107.635 411.328,109.301 409,111.5C 408.316,112.784 408.483,113.951 409.5,115C 407.963,116.11 407.297,117.61 407.5,119.5C 402.893,122.865 398.06,126.198 393,129.5C 389.872,128.058 387.038,128.558 384.5,131C 381.774,135.901 378.441,140.401 374.5,144.5C 375.601,149.363 373.934,153.197 369.5,156C 366.183,156.498 362.85,156.665 359.5,156.5C 359.469,161.895 361.636,166.228 366,169.5C 367.461,173.232 369.294,176.732 371.5,180C 368.298,186.679 368.964,193.179 373.5,199.5C 374.087,205.783 372.754,211.783 369.5,217.5C 370.833,219.5 372.5,221.167 374.5,222.5C 369.019,229.34 369.186,236.006 375,242.5C 375.667,243.833 375.667,245.167 375,246.5C 373.333,247.833 371.667,249.167 370,250.5C 369.727,252.329 368.893,253.829 367.5,255C 354.657,256.857 350.824,263.69 356,275.5C 357.512,276.257 358.846,277.257 360,278.5C 360.333,278.167 360.667,277.833 361,277.5C 363.956,280.597 366.79,283.764 369.5,287C 367.934,288.684 366.934,290.684 366.5,293C 366.641,296.384 366.641,299.717 366.5,303C 365.856,307.478 363.523,310.645 359.5,312.5C 358.579,318.798 357.246,324.965 355.5,331C 345.879,331.072 336.046,331.905 326,333.5C 321.518,333.67 317.185,333.003 313,331.5C 306.723,332.509 304.89,336.009 307.5,342C 308.703,343.368 309.703,344.868 310.5,346.5C 311.325,347.386 312.325,347.719 313.5,347.5C 313.729,349.433 314.562,351.1 316,352.5C 316.667,353.833 317.333,353.833 318,352.5C 319.606,357.108 322.773,359.941 327.5,361C 328.167,362 328.833,363 329.5,364C 328.076,366.101 326.742,368.267 325.5,370.5C 327.118,375.416 329.951,379.416 334,382.5C 334.088,386.828 335.088,391.162 337,395.5C 339.865,397.267 342.532,398.601 345,399.5C 343.963,404.198 345.796,407.198 350.5,408.5C 352.841,408.338 354.675,407.338 356,405.5C 360.09,407.119 362.924,409.952 364.5,414C 362.235,419.364 359.568,424.531 356.5,429.5C 356.68,430.554 357.013,431.554 357.5,432.5C 354.902,435.936 351.902,438.769 348.5,441C 344.912,445.287 340.912,449.121 336.5,452.5C 334.177,457.62 334.177,462.953 336.5,468.5C 333.279,472.782 331.279,477.616 330.5,483C 331.292,485.691 330.959,488.358 329.5,491C 334.944,496.338 340.444,502.505 346,509.5C 349.006,515.202 352.006,520.869 355,526.5C 358.026,526.641 361.193,526.141 364.5,525C 365.789,523.198 367.456,522.031 369.5,521.5 Z M 160.5,438.5 C 162.017,438.511 163.184,439.177 164,440.5C 165.686,443.216 167.186,446.049 168.5,449C 167.915,451.134 166.582,452.634 164.5,453.5C 164.675,459.871 161.675,463.204 155.5,463.5C 155.671,466.797 155.005,467.131 153.5,464.5C 151.577,463.692 149.577,463.192 147.5,463C 151.133,461.63 154.467,459.796 157.5,457.5C 158.806,453.635 158.806,449.802 157.5,446C 158.601,443.528 159.601,441.028 160.5,438.5 Z M 187.5,489.5 C 189.105,491.308 189.439,493.308 188.5,495.5C 186.834,493.579 186.5,491.579 187.5,489.5 Z"/></g>
</svg>
